<mxfile host="app.diagrams.net" modified="2023-07-19T07:47:53.947Z" agent="Mozilla/5.0 (X11; Linux x86_64) AppleWebKit/537.36 (KHTML, like Gecko) Chrome/111.0.0.0 Safari/537.36" version="21.6.3" etag="0Crj1c75-P3P3MHagE3H" type="github">
  <diagram name="第 1 页" id="aqHJoWYa0QOQClaJqp7k">
    <mxGraphModel>
      <root>
        <mxCell id="0" />
        <mxCell id="1" parent="0" />
      </root>
    </mxGraphModel>
  </diagram>
</mxfile>
